<svg width="1920" height="958" viewBox="0 0 1920 958" fill="none" xmlns="http://www.w3.org/2000/svg">
<g opacity="0.25">
<path d="M1114.29 865.81C1113.01 842.677 1102.61 821.056 1085.36 805.672L743.351 500.715C727.489 486.579 707.029 478.754 685.816 478.754H-65.3774C-113.229 478.754 -152 517.649 -152 565.653V572.872C-152 601.108 -138.323 627.566 -115.377 643.858L304.7 941.596C319.319 951.952 336.802 957.509 354.699 957.509H1027.79C1077.52 957.509 1117.05 915.59 1114.29 865.772V865.81Z" fill="white" fill-opacity="0.22"/>
<path d="M2037.38 0H1464.14C1441.15 0 1419.11 9.14721 1402.87 25.4383L1015.92 413.628C982.081 447.571 982.081 502.605 1015.92 536.548L1410.18 932.07C1426.42 948.361 1448.46 957.509 1471.45 957.509H2037.34C2085.19 957.509 2123.96 918.614 2123.96 870.61V86.8985C2123.96 38.8945 2085.19 0 2037.34 0H2037.38Z" fill="white" fill-opacity="0.22"/>
</g>
</svg>
