<svg width="28" height="22" viewBox="0 0 28 22" fill="none" xmlns="http://www.w3.org/2000/svg">
<path d="M23.0545 2.94548L22.9696 2.81898L22.8324 2.75493C21.1687 1.97835 19.4124 1.42747 17.6082 1.11625L17.228 1.05065L17.0408 1.39155C16.8589 1.72316 16.6896 2.06161 16.5333 2.40636C14.8791 2.18913 13.2044 2.18913 11.5501 2.40636C11.3939 2.06176 11.2246 1.72316 11.0427 1.39166L10.8556 1.05017L10.4748 1.11637C8.66967 1.43016 6.91256 1.98231 5.24755 2.75874L5.10873 2.82353L5.02358 2.95193C1.72914 7.92139 0.830414 12.7856 1.27775 17.5714L1.30048 17.8144L1.4942 17.9603C3.42977 19.4183 5.59642 20.5273 7.89998 21.239L8.26844 21.3528L8.49691 21.0395C9.02029 20.3218 9.48332 19.5606 9.88107 18.764L10.0076 18.5105C11.3189 18.8787 12.6767 19.067 14.0447 19.067C15.4114 19.067 16.7675 18.879 18.0776 18.5117L18.2044 18.7657C18.6018 19.5624 19.065 20.3231 19.589 21.0399L19.8171 21.3523L20.1849 21.2393C22.4906 20.5304 24.6593 19.4218 26.5954 17.9622L26.7886 17.8165L26.8115 17.5739C27.3366 12.0224 25.911 7.20359 23.0545 2.94548ZM9.94824 14.0987C9.08672 14.0987 8.27134 13.2774 8.27134 12.1389C8.27134 10.9907 9.06032 10.1692 9.94432 10.1692C10.8372 10.1692 11.6407 10.9993 11.6233 12.1303C11.6054 13.2885 10.8221 14.0987 9.94824 14.0987ZM18.1411 14.0987C17.2786 14.0987 16.4662 13.2784 16.4662 12.1389C16.4662 10.991 17.2548 10.1692 18.1411 10.1692C19.034 10.1692 19.8316 10.9969 19.8142 12.1303C19.7964 13.2891 19.0145 14.0987 18.1411 14.0987Z" fill="url(#paint0_linear_28_536)" stroke="url(#paint1_linear_28_536)" stroke-width="0.75"/>
<defs>
<linearGradient id="paint0_linear_28_536" x1="42.228" y1="-10.6343" x2="12.1543" y2="24.2516" gradientUnits="userSpaceOnUse">
<stop stop-color="white" stop-opacity="0"/>
<stop offset="0.333333" stop-color="white" stop-opacity="0"/>
<stop offset="0.666667" stop-color="white" stop-opacity="0"/>
<stop offset="1" stop-color="white" stop-opacity="0.3"/>
</linearGradient>
<linearGradient id="paint1_linear_28_536" x1="26.786" y1="1.97571" x2="8.34706" y2="25.8383" gradientUnits="userSpaceOnUse">
<stop stop-color="white"/>
<stop offset="1" stop-color="white" stop-opacity="0.6"/>
</linearGradient>
</defs>
</svg>
