<svg width="24" height="22" viewBox="0 0 24 22" fill="none" xmlns="http://www.w3.org/2000/svg">
<path d="M6.01155 7.78817V7.2385H5.46757H1.11575H0.571777V7.78817V20.2474V20.797H1.11575H5.46757H6.01155V20.2474V7.78817ZM14.1712 20.797H14.7152V20.2474V13.3523C14.7152 12.6357 14.9439 12.149 15.2397 11.844C15.5399 11.5346 15.9412 11.3779 16.3471 11.3779C16.753 11.3779 17.1544 11.5346 17.4545 11.844C17.7503 12.149 17.979 12.6357 17.979 13.3523V20.2474V20.797H18.523H22.8745H23.4185V20.2474V12.9184C23.4185 10.8389 22.8458 9.22377 21.8198 8.12501C20.7915 7.02377 19.368 6.50561 17.7977 6.50561C16.5889 6.50561 15.7064 6.87587 15.0474 7.38948C14.9289 7.48182 14.8183 7.57827 14.7152 7.67692V7.2385H14.1712H9.81939H9.27541V7.78817V20.2474V20.797H9.81939H14.1712ZM3.29166 6.13916C4.79376 6.13916 6.01155 4.90863 6.01155 3.39081C6.01155 1.87294 4.79376 0.642456 3.29166 0.642456C1.78952 0.642456 0.571777 1.87294 0.571777 3.39081C0.571777 4.90863 1.78952 6.13916 3.29166 6.13916Z" fill="url(#paint0_linear_28_529)" stroke="url(#paint1_linear_28_529)" stroke-width="0.75"/>
<defs>
<linearGradient id="paint0_linear_28_529" x1="36.8624" y1="-11.1002" x2="6.46516" y2="20.0124" gradientUnits="userSpaceOnUse">
<stop stop-color="white" stop-opacity="0"/>
<stop offset="0.333333" stop-color="white" stop-opacity="0"/>
<stop offset="0.666667" stop-color="white" stop-opacity="0"/>
<stop offset="1" stop-color="white" stop-opacity="0.3"/>
</linearGradient>
<linearGradient id="paint1_linear_28_529" x1="23.2373" y1="1.50972" x2="4.34865" y2="23.0785" gradientUnits="userSpaceOnUse">
<stop stop-color="white"/>
<stop offset="1" stop-color="white" stop-opacity="0.6"/>
</linearGradient>
</defs>
</svg>
