<svg width="53" height="53" viewBox="0 0 53 53" fill="none" xmlns="http://www.w3.org/2000/svg">
<path d="M26.5 0C11.8873 0 0 11.8884 0 26.5C0 41.1116 11.8873 53 26.5 53C41.1127 53 53 41.1116 53 26.5C53 11.8884 41.1116 0 26.5 0ZM26.5 49.3191C13.9179 49.3191 3.68199 39.0832 3.68199 26.5C3.68199 13.9168 13.9179 3.68091 26.5 3.68091C39.0821 3.68091 49.3191 13.9168 49.3191 26.5C49.3191 39.0832 39.0832 49.3191 26.5 49.3191Z" fill="#00FFFC"/>
<path d="M25 35L32.6911 26.7955C33.103 26.3562 33.103 25.6439 32.6911 25.2045L25 17" stroke="#00FFFC" stroke-width="3.5" stroke-linecap="round" stroke-linejoin="round"/>
</svg>
