<svg width="492" height="492" viewBox="0 0 492 492" fill="none" xmlns="http://www.w3.org/2000/svg">
<g opacity="0.05" clip-path="url(#clip0_28_365)">
<path d="M313.06 166.66C320.69 166.66 327.21 163.94 332.64 158.52C338.07 153.09 340.78 146.56 340.78 138.94C340.78 131.32 338.06 124.86 332.64 119.58C327.21 114.3 320.68 111.66 313.06 111.66C305.44 111.66 298.98 114.3 293.7 119.58C288.42 124.86 285.78 131.31 285.78 138.94C285.78 146.57 288.42 153.09 293.7 158.52C298.98 163.95 305.43 166.66 313.06 166.66Z" fill="white"/>
<path d="M350.46 238.53C355.89 233.1 358.6 226.57 358.6 218.95C358.6 211.33 355.88 204.87 350.46 199.59C345.03 194.31 338.5 191.67 330.88 191.67C323.26 191.67 316.8 194.31 311.52 199.59C306.24 204.87 303.6 211.32 303.6 218.95C303.6 226.58 306.24 233.1 311.52 238.53C316.8 243.96 323.25 246.67 330.88 246.67C338.51 246.67 345.03 243.95 350.46 238.53Z" fill="white"/>
<path d="M237.06 246.67C244.68 246.67 251.21 243.95 256.64 238.53C262.07 233.1 264.78 226.57 264.78 218.95C264.78 211.33 262.06 204.87 256.64 199.59C251.21 194.31 244.68 191.67 237.06 191.67C229.44 191.67 222.97 194.31 217.7 199.59C212.42 204.87 209.77 211.32 209.77 218.95C209.77 226.58 212.41 233.1 217.7 238.53C222.98 243.96 229.43 246.67 237.06 246.67Z" fill="white"/>
<path d="M340.19 281.88C332.56 281.88 326.11 284.52 320.83 289.8C315.55 295.08 312.91 301.53 312.91 309.16C312.91 316.79 315.55 323.31 320.83 328.74C326.11 334.17 332.56 336.88 340.19 336.88C347.82 336.88 354.34 334.16 359.77 328.74C365.2 323.31 367.91 316.78 367.91 309.16C367.91 301.54 365.19 295.08 359.77 289.8C354.34 284.52 347.81 281.88 340.19 281.88Z" fill="white"/>
<path d="M209.55 361.44C201.92 361.44 195.47 364.08 190.19 369.36C184.91 374.64 182.27 381.09 182.27 388.72C182.27 396.35 184.91 402.87 190.19 408.3C195.47 413.73 201.92 416.44 209.55 416.44C217.18 416.44 223.7 413.72 229.13 408.3C234.56 402.87 237.27 396.34 237.27 388.72C237.27 381.1 234.55 374.64 229.13 369.36C223.7 364.08 217.17 361.44 209.55 361.44Z" fill="white"/>
<path d="M245.78 281.88C238.15 281.88 231.7 284.52 226.42 289.8C221.14 295.08 218.5 301.53 218.5 309.16C218.5 316.79 221.14 323.31 226.42 328.74C231.7 334.17 238.15 336.88 245.78 336.88C253.41 336.88 259.93 334.16 265.36 328.74C270.79 323.31 273.5 316.78 273.5 309.16C273.5 301.54 270.78 295.08 265.36 289.8C259.93 284.52 253.4 281.88 245.78 281.88Z" fill="white"/>
<path d="M149.04 281.88C141.41 281.88 134.96 284.52 129.68 289.8C124.4 295.08 121.76 301.53 121.76 309.16C121.76 316.79 124.4 323.31 129.68 328.74C134.96 334.17 141.41 336.88 149.04 336.88C156.67 336.88 163.19 334.16 168.62 328.74C174.05 323.31 176.76 316.78 176.76 309.16C176.76 301.54 174.04 295.08 168.62 289.8C163.19 284.52 156.66 281.88 149.04 281.88Z" fill="white"/>
<path d="M246 0C110.35 0 0 110.36 0 246C0 381.64 110.35 492 246 492C381.65 492 492 381.64 492 246C492 110.36 381.64 0 246 0ZM246 457.83C129.2 457.83 34.18 362.81 34.18 246C34.18 129.19 129.2 34.17 246 34.17C362.8 34.17 457.83 129.19 457.83 246C457.83 362.81 362.81 457.83 246 457.83Z" fill="white"/>
</g>
<defs>
<clipPath id="clip0_28_365">
<rect width="492" height="492" fill="white"/>
</clipPath>
</defs>
</svg>
